<svg width="22" height="169" viewBox="0 0 22 169" fill="none" xmlns="http://www.w3.org/2000/svg">
<path d="M20.0462 125.456C14.3817 143.976 -0.131318 160.79 -18.46 167.046C-35.955 173.018 -53.43 160.299 -71.5673 156.725C-87.8996 153.507 -107.37 158.738 -119.338 147.168C-131.28 135.622 -128.045 116.273 -130.413 99.8315C-132.64 84.3734 -136.015 69.4522 -132.73 54.1839C-128.671 35.3215 -127.053 10.7564 -109.517 2.71027C-91.771 -5.43185 -73.4072 13.2579 -54.5485 18.3122C-39.2515 22.4119 -21.7384 19.3605 -9.57037 29.4969C2.87824 39.867 5.68856 56.9905 10.4667 72.472C15.8925 90.0517 25.4274 107.863 20.0462 125.456Z" fill="#4F7AB9"/>
</svg>
