<svg width="74" height="181" viewBox="0 0 74 181" fill="none" xmlns="http://www.w3.org/2000/svg">
<path d="M86.3654 13.9612C95.0675 16.4061 104.591 14.0439 113.053 17.2203C121.669 20.4543 128.058 27.47 135.763 32.5028C144.937 38.495 159.941 39.5665 163.253 50.0112C166.738 61.0046 151.089 70.7284 151.537 82.2524C151.985 93.7795 166.674 102 165.72 113.496C164.836 124.163 154.11 131.278 146.822 139.117C139.722 146.754 132.582 154.661 123.206 159.226C113.936 163.738 102.903 161.946 93.1378 165.251C81.2433 169.276 71.6834 182.369 59.2147 180.881C47.2594 179.455 41.0407 165.555 31.7285 157.924C22.9795 150.753 10.7768 146.858 5.49476 136.856C0.171045 126.774 3.3407 114.441 2.75437 103.055C2.23631 92.995 2.16463 83.1702 2.21141 73.0968C2.26333 61.9164 -3.09 49.1964 3.04788 39.8513C9.31868 30.3038 24.54 32.0104 33.689 25.1713C42.3969 18.6619 44.469 3.2019 55.1028 0.938906C66.2392 -1.43103 75.4041 10.8816 86.3654 13.9612Z" fill="#3066BE"/>
</svg>
